<svg xmlns="http://www.w3.org/2000/svg" width="200" height="267" viewBox="0 0 200 267">
  <defs>
    <linearGradient id="memoryGradient" x1="0%" y1="0%" x2="100%" y2="100%">
      <stop offset="0%" style="stop-color:#818CF8"/>
      <stop offset="100%" style="stop-color:#6366F1"/>
    </linearGradient>
  </defs>
  <rect width="200" height="267" rx="8" fill="url(#memoryGradient)"/>
  <!-- Brain icon -->
  <g transform="translate(45, 78.5)" fill="none" stroke="#FFFFFF" stroke-width="5" stroke-linecap="round" stroke-linejoin="round">
    <!-- Left hemisphere -->
    <path d="M55 10 C30 10, 10 30, 10 55 C10 75, 20 90, 40 95 C40 100, 45 105, 55 105"/>
    <!-- Right hemisphere -->
    <path d="M55 10 C80 10, 100 30, 100 55 C100 75, 90 90, 70 95 C70 100, 65 105, 55 105"/>
    <!-- Brain folds - left -->
    <path d="M25 40 Q35 45, 45 40"/>
    <path d="M20 60 Q35 65, 50 60"/>
    <path d="M30 80 Q40 85, 50 80"/>
    <!-- Brain folds - right -->
    <path d="M85 40 Q75 45, 65 40"/>
    <path d="M90 60 Q75 65, 60 60"/>
    <path d="M80 80 Q70 85, 60 80"/>
    <!-- Center line -->
    <line x1="55" y1="15" x2="55" y2="100"/>
  </g>
</svg>
